<?xml version="1.0" encoding="UTF-8" standalone="no"?>
<svg
class="svg"
   xmlns:dc="http://purl.org/dc/elements/1.1/"
   xmlns:cc="http://creativecommons.org/ns#"
   xmlns:rdf="http://www.w3.org/1999/02/22-rdf-syntax-ns#"
   xmlns:svg="http://www.w3.org/2000/svg"
   xmlns="http://www.w3.org/2000/svg"
   id="SVGRoot"
   version="1.1"
   viewBox="0 0 300 300"
   height="300px"
   width="300px">
  <defs
     id="defs10" />
  <metadata
     id="metadata13">
    <rdf:RDF>
      <cc:Work
         rdf:about="">
        <dc:format>image/svg+xml</dc:format>
        <dc:type
           rdf:resource="http://purl.org/dc/dcmitype/StillImage" />
        <dc:title></dc:title>
      </cc:Work>
    </rdf:RDF>
  </metadata>
  <g
     id="layer1">
    <path
    class="path"
       d="m 160.10146,257.1256 c -0.73055,-1.62731 -1.64058,-3.16154 -2.46179,-4.74184 -0.4426,-0.87113 -0.79216,-1.77388 -1.05487,-2.71351 -0.34015,-1.0234 -0.55636,-2.07661 -0.90091,-3.09824 -0.31885,-0.97385 -0.57211,-1.9593 -0.78888,-2.9595 -0.30334,-1.3954 -0.40616,-2.82245 -0.59419,-4.23519 -0.21347,-1.46411 -0.33022,-2.93914 -0.52923,-4.40462 -0.32903,-2.19291 -0.65555,-4.38327 -0.88774,-6.58881 -0.30022,-3.06609 -0.45405,-6.14354 -0.66015,-9.21682 -0.28297,-4.47737 -0.47042,-8.95775 -0.55649,-13.44285 -0.0176,-3.03315 -0.1284,-6.07063 0.0607,-9.10083 0.12396,-1.98665 0.23696,-2.67567 0.47516,-4.60704 0.3807,-3.53019 1.35442,-6.95204 2.50985,-10.29698 1.14994,-3.22376 2.922,-6.16816 5.12798,-8.78317 0.59931,-0.71042 1.25915,-1.36749 1.88872,-2.05123 0.72605,-0.65448 1.42188,-1.34413 2.17816,-1.96343 1.27347,-1.0428 4.01025,-3.00387 5.42578,-3.85246 4.37546,-2.62303 6.51595,-3.86497 10.74995,-5.78064 1.58295,-0.7162 3.19272,-1.37158 4.78908,-2.05738 6.851,-2.90275 13.85863,-5.40842 20.77947,-8.13464 5.4201,-2.13507 5.41597,-2.17005 10.89688,-4.47098 6.94119,-2.90817 13.83008,-6.00943 20.30974,-9.86028 0.42689,-0.25369 0.77614,-0.62121 1.18626,-0.90121 1.33824,-0.91366 2.70451,-1.78557 4.05677,-2.67835 2.95175,-2.04313 5.95283,-4.04009 8.59217,-6.49027 0.82499,-0.76587 1.60984,-1.57498 2.37811,-2.39775 1.95302,-2.09156 2.2375,-2.59413 3.97375,-4.89191 2.02718,-3.17198 3.80826,-6.53213 5.11587,-10.06932 0.6502,-1.75884 0.78228,-2.41931 1.25287,-4.19469 0.78713,-2.98328 0.95166,-6.051248 1.01107,-9.118723 0.0148,-2.475817 -0.003,-4.951609 -0.0233,-7.427352 -0.0728,-2.441341 -0.54144,-4.857747 -1.04342,-7.242643 -0.68844,-3.262269 -1.80721,-6.422835 -2.94735,-9.550708 -0.79732,-2.203271 -1.72956,-4.36057 -2.75687,-6.465998 -0.76411,-1.410884 -1.56614,-2.80081 -2.35278,-4.199282 -1.1001,-1.72162 -2.34453,-3.346569 -3.51934,-5.018029 -0.91319,-1.261935 -2.01573,-2.364806 -3.10244,-3.474227 -1.36284,-1.290726 -2.73698,-2.568413 -4.09717,-3.861551 -0.54267,-0.576489 -1.10589,-1.122712 -1.73482,-1.603212 0,0 3.70003,-2.330582 3.70003,-2.330582 v 0 c 0.62935,0.499944 1.19352,1.064559 1.74014,1.653633 1.34367,1.311625 2.71546,2.592535 4.07908,3.883597 1.12266,1.112423 2.24628,2.22809 3.14816,3.534888 1.16805,1.695145 2.42006,3.331551 3.56087,5.04322 0.78324,1.409613 1.57085,2.816835 2.33726,4.235587 1.0393,2.119866 1.97162,4.2959 2.73844,6.529829 0.65604,1.835342 1.29564,3.675946 1.89446,5.530953 0.19313,0.59826 0.76623,2.435265 0.93178,3.085848 0.0808,0.317716 0.12811,0.643045 0.19217,0.964568 0.49436,2.413194 0.97237,4.857114 1.07928,7.320945 0.009,2.481911 0.0436,4.963922 0.0112,7.44572 -0.0614,3.105068 -0.18416,6.211356 -1.00472,9.229159 -0.43639,1.66498 -0.64481,2.61104 -1.24393,4.25198 -1.30569,3.57619 -3.14205,6.95113 -5.12304,10.1896 -0.63749,0.86001 -1.2433,1.74443 -1.91248,2.58001 -1.14593,1.43089 -3.09938,3.55588 -4.41121,4.79658 -2.64624,2.50275 -5.67934,4.51566 -8.66727,6.57649 -5.39687,3.56627 -5.23901,3.54017 -12.17784,7.59453 -4.87711,2.84969 -9.95953,5.31906 -15.12647,7.59129 -1.71992,0.75635 -3.45569,1.47616 -5.18353,2.21425 -5.47426,2.29795 -5.51352,2.35285 -10.92335,4.47731 -6.93111,2.72188 -13.93875,5.2512 -20.7934,8.16602 -11.91435,5.2028 1.566,-0.76735 -8.77848,4.04321 -0.11865,0.0552 0.41944,-0.31247 0.30948,-0.24152 -2.66639,1.72059 -5.32531,3.48673 -7.60787,5.7112 -0.62787,0.66854 -1.28645,1.3095 -1.8836,2.00561 -0.52483,0.6118 -1.00087,1.26425 -1.47846,1.9136 -1.52675,2.07582 -2.79968,4.27694 -3.64616,6.71966 -1.18215,3.32346 -2.19749,6.71878 -2.59324,10.23768 -0.24746,1.85402 -0.3881,2.68076 -0.51146,4.58355 -0.19574,3.01918 -0.0496,6.04371 -0.0456,9.06553 0.0767,4.47906 0.23122,8.95739 0.53897,13.42713 0.22312,3.06018 0.45321,6.11895 0.70351,9.17663 0.23779,2.197 0.57553,4.37937 0.89958,6.56494 0.22092,1.46189 0.35295,2.93378 0.54833,4.39931 0.18779,1.39978 0.27608,2.81526 0.59021,4.19622 0.21877,0.98387 0.44156,1.96192 0.76242,2.91997 0.34606,1.02966 0.57141,2.08703 0.91896,3.11651 0.24648,0.91368 0.57987,1.79217 0.99654,2.64297 0.80578,1.58599 1.69371,3.13015 2.46028,4.73659 0,0 -3.77566,2.16145 -3.77566,2.16145 z"
       id="path23" />
    <path
     class="path"
       d="m 151.72209,209.00296 c -0.41113,-1.6736 -0.82409,-3.34515 -1.26109,-5.01218 -0.21317,-0.86599 -0.43675,-1.72297 -0.55644,-2.60803 -0.0943,-0.72352 -0.23041,-1.43645 -0.30024,-2.16435 -0.0446,-0.70333 -0.21382,-1.38684 -0.28937,-2.08712 -0.23071,-0.93811 -0.51655,-1.85925 -0.72244,-2.80379 -0.21063,-0.7436 -0.42452,-1.48582 -0.59609,-2.23963 -0.13529,-0.64688 -0.31574,-1.28082 -0.45626,-1.92712 -0.21464,-0.83694 -0.55992,-1.62251 -0.91009,-2.40945 -0.35336,-0.81069 -0.68512,-1.6293 -1.02566,-2.44482 -0.36979,-0.98391 -0.84348,-1.92104 -1.30548,-2.86393 -0.49402,-1.02749 -0.96913,-2.06455 -1.48023,-3.08372 -0.46473,-0.99916 -1.06478,-1.94183 -1.68046,-2.8556 -0.84393,-1.26897 -1.75576,-2.4814 -2.75403,-3.63214 -1.23002,-1.52016 -2.64445,-2.86213 -4.04537,-4.21906 -1.9372,-1.94791 -4.15815,-3.57296 -6.38505,-5.16805 -2.35755,-1.74001 -4.86969,-3.23597 -7.47881,-4.56107 -2.2775,-1.06511 -4.54445,-2.15787 -6.91391,-3.00399 -1.80394,-0.69159 -3.67019,-1.17595 -5.52944,-1.68579 -2.52445,-0.66028 -5.07354,-1.21911 -7.60428,-1.85275 -3.679758,-0.954 -7.409593,-1.69568 -11.11998,-2.51729 -4.002916,-0.95815 -8.034799,-1.79321 -12.023541,-2.80892 -4.707352,-1.18486 -9.338605,-2.63901 -13.923223,-4.22793 -1.897057,-0.82455 -3.860765,-1.52796 -5.688805,-2.50609 -1.974017,-1.05625 -3.798428,-2.3716 -5.638992,-3.63787 -1.160711,-0.89822 -2.453536,-1.64884 -3.564016,-2.6144 -1.028032,-0.89387 -1.888523,-1.95591 -2.746891,-3.00542 -1.995855,-2.84386 -3.885555,-5.77686 -5.513428,-8.84854 -1.762182,-3.72821 -2.942913,-7.68452 -4.083817,-11.63517 -1.284753,-4.53879 -2.104897,-9.18353 -3.039998,-13.800454 -1.153853,-5.780585 -1.792051,-11.656302 -2.296333,-17.525065 -0.382869,-4.560512 -0.654361,-9.127666 -0.751357,-13.702873 -0.05434,-2.275249 -0.04749,-4.550908 -0.04034,-6.826512 0.03741,-1.200292 -0.04531,-2.405009 5.89e-4,-3.604975 0.02321,-0.606834 0.11025,-1.458573 0.165834,-2.060461 0.126089,-1.458838 0.325181,-2.91194 0.728622,-4.320748 0.319032,-1.111812 0.739647,-2.19114 1.145902,-3.273185 0.34519,-0.984906 0.729749,-1.950181 1.279693,-2.839196 0.39981,-0.565479 0.756266,-1.159626 1.143964,-1.733079 0.799196,-1.19666 1.981121,-2.069978 3.04034,-3.022552 0.724263,-0.656651 1.438542,-1.329776 2.218682,-1.920614 1.346642,-0.782369 2.693284,-1.564739 4.039927,-2.347108 0.103321,-0.05608 0.411819,-0.226955 0.309963,-0.168252 -1.153365,0.664715 -2.306018,1.330726 -3.46458,1.986342 -0.08912,0.05043 0.170349,-0.113686 0.255597,-0.170417 0.494062,-0.32879 0.0188,-0.01153 0.508301,-0.338645 1.15483,-0.900084 2.43651,-1.611861 3.687969,-2.3677 2.534289,-1.469113 4.991041,-3.099845 7.655411,-4.325965 0.157322,-0.06087 0.314644,-0.121741 0.471966,-0.182612 0,0 -3.426085,2.699626 -3.426085,2.699626 v 0 c -0.151283,0.06612 -0.302565,0.132249 -0.453848,0.198373 -0.548667,0.270443 -0.503373,0.241929 -1.063587,0.545006 -0.196545,0.106332 -0.779821,0.436752 -0.587083,0.323667 6.086015,-3.570832 2.754438,-1.582139 1.436727,-0.81646 -0.970027,0.591079 -0.853176,0.524574 -1.818924,1.09473 -0.216691,0.127931 -1.066586,0.615035 -1.30563,0.78659 -0.188409,0.135216 -0.319684,0.340107 -0.517013,0.465542 -0.268363,0.151322 -0.506951,0.337053 -0.771913,0.493358 -1.334855,0.787449 -2.672282,1.570532 -4.010128,2.352888 -0.101266,0.05922 -0.408343,0.231133 -0.307146,0.171799 1.141241,-0.66913 2.284888,-1.334147 3.427333,-2.00122 -0.82957,0.526592 -1.525791,1.235698 -2.266438,1.876191 -1.023303,0.958866 -2.21172,1.777616 -3.053735,2.91067 -0.372228,0.586765 -0.764825,1.160681 -1.145245,1.743305 -0.623928,0.823834 -0.993088,1.787337 -1.340582,2.753726 -0.412879,1.069182 -0.806666,2.147301 -1.151425,3.23989 -0.427832,1.384846 -0.671126,2.812592 -0.793905,4.257992 -0.04917,0.516457 -0.149463,1.492026 -0.17107,2.018519 -0.04934,1.202359 0.02784,2.410188 -0.01532,3.612914 -0.0043,2.279046 -0.01644,4.558127 -1.7e-5,6.837151 0.06872,4.581735 0.275178,9.160826 0.636955,13.729207 0.516141,5.846367 1.17206,11.692076 2.338556,17.449288 0.928928,4.607935 1.748647,9.241069 3.018661,13.772929 1.126374,3.92132 2.329712,7.83854 4.105976,11.52388 1.583852,3.06003 3.418738,5.99827 5.45237,8.77889 0.717944,0.84795 1.068126,1.30117 1.820589,2.05866 1.32333,1.33216 2.89407,2.37162 4.401182,3.47953 1.005386,0.69813 2.547584,1.78789 3.573505,2.41941 2.426376,1.49358 5.054261,2.58756 7.700648,3.62366 4.5556,1.62398 9.178931,3.05253 13.875874,4.21259 4.004048,0.98666 8.040219,1.83643 12.056112,2.77364 3.708479,0.84428 7.440087,1.58777 11.127347,2.52326 2.54427,0.61951 5.10499,1.16964 7.63756,1.83862 1.87635,0.4797 3.72791,1.03756 5.54064,1.72415 2.37393,0.8687 4.64918,1.96306 6.92557,3.05922 2.62963,1.32803 5.1392,2.8529 7.49552,4.62818 2.24896,1.61147 4.51658,3.22633 6.48439,5.18295 1.39695,1.37375 2.7977,2.74093 4.04079,4.26039 1.02922,1.15364 1.96282,2.36867 2.80442,3.66708 0.62579,0.92919 1.26093,1.87466 1.72733,2.89412 0.50685,1.02273 0.96827,2.06759 1.46139,3.09701 0.46888,0.94873 0.97441,1.88005 1.34312,2.8735 0.33938,0.81215 0.65353,1.63484 1.00741,2.4417 0.36815,0.81102 0.73359,1.61579 0.96351,2.47915 0.15246,0.64365 0.31345,1.28484 0.45554,1.92998 0.16385,0.75756 0.38488,1.50013 0.5926,2.24654 0.19686,0.96202 0.4815,1.89795 0.75073,2.84145 0.0677,0.70398 0.24014,1.38783 0.2895,2.09252 0.0622,0.72501 0.19712,1.43186 0.29472,2.15005 0.10196,0.87238 0.31821,1.71367 0.51847,2.56711 0.41257,1.66996 0.80866,3.34403 1.2539,5.00536 0,0 -3.82257,2.08001 -3.82257,2.08001 z"
       id="path25" />
    <path
     class="path"
       d="m 148.29502,191.65066 c -0.17126,-1.77807 -0.33486,-3.55677 -0.45446,-5.33914 -0.0595,-0.85174 -0.0791,-1.70514 -0.0843,-2.55866 0.0352,-0.65606 -0.0234,-1.29872 -0.11664,-1.94634 -0.1467,-1.44499 -0.12718,-2.9052 -0.14958,-4.35698 -0.008,-1.30129 -0.017,-2.60258 -0.0224,-3.90388 -0.002,-0.74239 -10e-4,-1.48479 -0.002,-2.22719 -0.0285,-0.98418 0.0657,-1.96451 0.13618,-2.94504 0.0476,-1.04071 0.29681,-2.02089 0.62501,-3.00024 0.33028,-0.81143 0.55026,-1.65833 0.81362,-2.49201 0.31178,-0.91569 0.5372,-1.86256 0.90728,-2.75749 0.30482,-0.55592 0.63126,-1.0978 0.90001,-1.67256 0.35027,-0.97537 0.81075,-1.90617 1.31383,-2.81073 0.72437,-1.26681 1.6671,-2.38981 2.55102,-3.54562 0.77156,-0.97301 1.50815,-1.96885 2.37414,-2.86032 0.51376,-0.54465 1.02802,-1.08791 1.53251,-1.64123 1.20057,-1.10167 2.40684,-2.20049 3.60076,-3.31109 0.88802,-0.87529 1.85112,-1.67219 2.7386,-2.54691 0.73827,-0.76241 1.53951,-1.45385 2.24822,-2.24472 0.70494,-0.75919 1.3058,-1.60299 1.96365,-2.40087 0.52334,-0.61199 1.06278,-1.21067 1.55873,-1.84534 0.56672,-0.75686 1.23186,-1.43201 1.81223,-2.17781 0.61284,-0.93594 1.23983,-1.85911 1.89936,-2.76312 1.28419,-1.7066 2.5234,-3.44631 3.72896,-5.20914 0.93497,-1.41391 1.9383,-2.78761 2.79455,-4.25174 0.65322,-1.25105 1.33669,-2.48421 2.01465,-3.72247 0.91228,-1.55101 1.67144,-3.17837 2.45642,-4.79429 0.68393,-1.39111 1.34516,-2.79372 1.99975,-4.19898 0.53447,-1.29985 1.09074,-2.58625 1.67451,-3.86556 0.97402,-2.16749 1.84229,-4.376397 2.55976,-6.641733 0.39221,-1.134586 0.82771,-2.25424 1.2125,-3.391335 0.35931,-1.153115 0.52569,-2.351528 0.74032,-3.536447 0.20537,-0.94119 0.28516,-1.901999 0.46209,-2.847692 0.18326,-1.17574 0.21661,-2.368593 0.25056,-3.556104 0.0232,-1.207381 0.0176,-2.415056 0.0123,-3.622573 -0.006,-0.787776 -0.0957,-1.57938 -0.23276,-2.355004 -0.48741,-1.764625 -1.10702,-3.489328 -1.73775,-5.206769 -0.62076,-1.564605 -1.51301,-3.013109 -2.44461,-4.410081 -1.45166,-1.849827 -3.14309,-3.493237 -4.80593,-5.149982 -2.49852,-2.294794 -5.30389,-4.214651 -8.11403,-6.100937 -2.37171,-1.593918 -4.81754,-3.073718 -7.23925,-4.589709 -2.11156,-1.269258 -4.32733,-2.34972 -6.49561,-3.515848 -1.1879,-0.662453 -2.431,-1.208822 -3.67179,-1.760613 -0.58896,-0.305886 -1.23162,-0.410638 -1.86092,-0.588154 -0.42797,-0.109088 -0.21483,-0.05944 -0.63934,-0.149414 0,0 3.59438,-2.491062 3.59438,-2.491062 v 0 c 0.43105,0.103783 0.21537,0.04984 0.64704,0.161883 0.65549,0.158135 1.29056,0.35526 1.89874,0.65293 1.23131,0.574498 2.46939,1.134174 3.65119,1.808611 2.17337,1.170293 4.38076,2.279672 6.50391,3.541594 2.43333,1.488488 4.81982,3.055306 7.1915,4.63943 2.83519,1.906223 5.70797,3.799222 8.21186,6.138718 1.67023,1.69115 3.39994,3.344189 4.88031,5.207297 0.93031,1.436291 1.8477,2.912217 2.49405,4.499408 0.61921,1.744756 1.21645,3.496737 1.79182,5.256547 0.15959,0.795901 0.24318,1.6191 0.2668,2.428993 -0.004,1.212595 -0.011,2.425177 -0.0221,3.637728 -0.0143,1.207403 -0.0748,2.413695 -0.19946,3.615158 -0.19412,0.945624 -0.27839,1.906203 -0.47811,2.851479 -0.23174,1.194157 -0.38657,2.404738 -0.70247,3.581712 -0.36512,1.151603 -0.837,2.268731 -1.24899,3.403943 -0.72246,2.277088 -1.57603,4.506476 -2.54731,6.689246 -0.55706,1.28429 -1.14016,2.55227 -1.63928,3.86006 -0.67107,1.40382 -1.32855,2.81389 -2.01349,4.21104 -0.79173,1.62245 -1.53249,3.26731 -2.46435,4.81846 -0.66392,1.23895 -1.3404,2.46876 -1.98213,3.71829 -0.8314,1.4946 -1.86813,2.86272 -2.80446,4.29185 -1.18336,1.77738 -2.45034,3.49701 -3.71114,5.21996 -0.65955,0.8941 -1.29135,1.80299 -1.87721,2.74658 -0.51705,0.79368 -1.22471,1.43659 -1.80478,2.18255 -0.46506,0.66901 -1.02321,1.26213 -1.55651,1.87597 -0.67902,0.78423 -1.258,1.64364 -1.96092,2.40861 -0.6976,0.81153 -1.46743,1.53199 -2.24338,2.26705 -0.85864,0.91907 -1.86064,1.68614 -2.74957,2.57676 -1.1914,1.08991 -2.34233,2.2255 -3.58044,3.26334 -0.51029,0.55302 -1.01064,1.11317 -1.53721,1.6496 -0.43249,0.47276 -0.20221,0.24454 -0.69264,0.68284 -0.63012,0.66524 -1.0957,1.47911 -1.72488,2.14602 -0.86953,1.14943 -1.80507,2.25699 -2.55493,3.49005 -0.53297,0.86518 -0.99736,1.79086 -1.31995,2.75608 -0.23983,0.59524 -0.54307,1.15772 -0.88934,1.69765 -0.50671,0.80447 -0.59466,1.82711 -0.94921,2.70111 -0.27715,0.82797 -0.44551,1.68924 -0.80413,2.48949 -0.12986,0.40058 -0.32861,0.8073 -0.4341,1.21225 -0.14352,0.5509 -0.13638,1.14267 -0.25255,1.69857 -0.0701,0.96783 -0.15593,1.93549 -0.12972,2.90681 -0.001,0.74364 -0.002,1.48728 -0.005,2.23092 -0.006,1.303 -0.0133,2.60606 7e-4,3.90904 0.0113,1.43064 -2.5e-4,2.86854 0.14915,4.29254 0.0965,0.66664 0.19741,1.32375 0.14347,2.00105 0.002,0.84889 0.0105,1.69798 0.0553,2.54589 0.0956,1.77795 0.23631,3.55356 0.4454,5.32202 0,0 -3.85572,2.0158 -3.85572,2.0158 z"
       id="path27" />
    <path
     class="path"
       d="m 148.52882,165.92668 c -0.50469,-1.62217 -0.97642,-3.25162 -1.41,-4.89418 -0.27439,-0.93006 -0.43061,-1.88351 -0.50031,-2.84886 -0.016,-0.71006 -0.15701,-1.40819 -0.23949,-2.11195 -0.0472,-1.05509 -0.19351,-2.10223 -0.28522,-3.15401 -0.0629,-0.73094 -0.0855,-1.46431 -0.0921,-2.19764 -0.0776,-0.95442 -0.21515,-1.90198 -0.35413,-2.84924 -0.1064,-0.88492 -0.22459,-1.76772 -0.33976,-2.65158 -0.25865,-0.89685 -0.44639,-1.8107 -0.66654,-2.71677 -0.24035,-0.788 -0.38495,-1.60506 -0.66219,-2.38099 -0.26229,-0.68149 -0.52907,-1.36071 -0.78808,-2.04352 -0.14909,-0.61749 -0.38472,-1.176 -0.68658,-1.72937 -0.30532,-0.58523 -0.6821,-1.12741 -1.01351,-1.69727 -0.76102,-1.18211 -1.60165,-2.30878 -2.38085,-3.47926 -0.5567,-0.8659 -1.3138,-1.57232 -1.99528,-2.33696 -2.18235,-2.33174 -4.6572,-4.37307 -7.1464,-6.36603 -2.73959,-2.09796 -5.58416,-4.05651 -8.4442,-5.98582 -2.9692,-1.94141 -6.11455,-3.59278 -9.17817,-5.37663 -3.53868,-2.21363 -7.10707,-4.39014 -10.51192,-6.80749 -1.04788,-0.85522 -2.213602,-1.55379 -3.246198,-2.42799 -0.581193,-0.49204 -0.869026,-0.79586 -1.428434,-1.34347 -1.232591,-1.25416 -2.382961,-2.588775 -3.622317,-3.835833 -0.843206,-0.856734 -1.415117,-1.934457 -2.023434,-2.961163 -0.472376,-0.7652 -0.909619,-1.561192 -1.198989,-2.414656 -0.485275,-1.44458 -0.660817,-2.977882 -0.873358,-4.481844 -0.19589,-1.296456 -0.253263,-2.606155 -0.263838,-3.915368 -0.0035,-1.401239 -0.0083,-2.802474 -0.01153,-4.203714 -0.006,-0.969273 0.0054,-1.938459 0.0089,-2.907697 0.0602,-1.120897 0.12607,-2.24525 0.255588,-3.360676 0.126596,-1.031261 0.386023,-2.036595 0.62189,-3.046262 0.322029,-1.15736 0.78678,-2.266552 1.199667,-3.393031 0.34807,-1.010686 0.798632,-1.957446 1.350102,-2.871471 0.620328,-0.813952 1.038586,-1.807 1.75832,-2.546322 0.225413,-0.231548 0.470463,-0.443133 0.705695,-0.664699 2.094823,-1.920855 4.344897,-3.652284 6.648846,-5.31166 1.52225,-1.072137 3.07242,-2.103546 4.67295,-3.055035 2.59133,-1.834942 5.51042,-2.933101 8.3492,-4.271001 1.72076,-0.90556 3.50333,-1.688708 5.3134,-2.396402 1.55739,-0.635287 3.14438,-1.191972 4.69996,-1.831425 2.67229,-1.221405 5.38427,-2.350194 8.07187,-3.536908 1.43676,-0.621224 2.89257,-1.198238 4.31189,-1.858838 1.26323,-0.499458 2.47221,-1.141103 3.73697,-1.631012 1.32868,-0.500442 2.55806,-1.206895 3.80066,-1.884037 -3.34353,1.911912 -4.2409,2.46428 -2.75136,1.55673 0,0 4.06749,-1.571602 4.06749,-1.571602 v 0 c -1.85144,1.119494 -0.29747,0.183432 -4.70102,2.742202 -1.24975,0.681547 -2.50936,1.34538 -3.84075,1.856773 -1.23614,0.546599 -2.47803,1.079918 -3.71173,1.632063 -1.41676,0.642494 -2.86371,1.214978 -4.29091,1.833786 -2.69671,1.188133 -5.41844,2.317524 -8.09899,3.542472 -1.5566,0.627721 -3.13907,1.187754 -4.69315,1.822171 -1.79945,0.732208 -3.57016,1.530467 -5.2993,2.417045 -1.71661,0.795663 -8.37442,3.962482 -0.8976,0.01168 -1.61792,0.95547 -3.20698,1.956007 -4.7419,3.041952 -2.30125,1.634978 -4.55287,3.341481 -6.636559,5.2504 -0.09995,0.08909 -0.86073,0.746299 -1.050752,0.97033 -0.553827,0.652947 -0.92207,1.449888 -1.446387,2.124447 -0.558933,0.887201 -1.035106,1.792321 -1.369945,2.789208 -0.432302,1.108112 -0.855034,2.220976 -1.239653,3.346579 -0.225599,0.997941 -0.477518,1.990591 -0.623205,3.003826 -0.175842,1.09332 -0.189116,2.212117 -0.294814,3.313719 0.0028,0.967813 0.01337,1.935588 0.0015,2.90341 -0.0099,1.401506 -0.02194,2.803132 -0.0051,4.204636 0.0235,1.293294 0.05382,2.588361 0.232337,3.871775 0.19445,1.478514 0.367712,2.983954 0.863619,4.39733 0.262217,0.82959 0.693055,1.59762 1.138605,2.341248 0.584823,1.001662 1.156276,2.033384 1.971389,2.869958 1.211419,1.265567 2.354372,2.596641 3.589325,3.84038 0.49037,0.465615 0.90059,0.872726 1.41605,1.301438 1.03008,0.856718 2.16694,1.577748 3.19759,2.434188 3.37176,2.43732 6.91493,4.62707 10.47035,6.78406 3.08952,1.76439 6.22371,3.46334 9.21782,5.38622 2.87207,1.92551 5.67356,3.95799 8.44058,6.03092 2.50992,2.02019 4.99539,4.0852 7.26224,6.37887 0.69526,0.77923 1.4633,1.50427 2.01906,2.39596 0.77639,1.18343 1.61121,2.32373 2.41226,3.49029 0.33211,0.57324 0.70738,1.1206 1.017,1.70711 0.32079,0.57929 0.57259,1.13065 0.7152,1.78457 0.25662,0.68582 0.53073,1.36402 0.78776,2.04962 0.29065,0.78801 0.43951,1.6187 0.68472,2.42146 0.23134,0.91994 0.38722,1.85936 0.68663,2.76276 0.11193,0.88309 0.24917,1.76104 0.33299,2.64763 0.13644,0.96485 0.27875,1.92787 0.39225,2.89554 0.006,0.72478 0.0158,1.44994 0.07,2.17306 0.0807,1.04799 0.22545,2.08962 0.28856,3.13849 0.0736,0.71206 0.22396,1.41614 0.24323,2.13236 0.0535,0.94187 0.1845,1.87438 0.44612,2.78338 0.42639,1.64971 0.85754,3.29662 1.41929,4.90738 0,0 -3.83388,2.06026 -3.83388,2.06026 z"
       id="path29" />
    <path
     class="path"
       d="m 143.98991,139.76475 c 0.0965,-1.78251 0.29175,-3.55757 0.43428,-5.33668 0.0543,-0.87918 0.18629,-1.75411 0.34215,-2.62069 0.16053,-0.64342 0.2674,-1.29408 0.31814,-1.95476 0.10887,-0.58293 0.31935,-1.15282 0.5615,-1.69416 0.22596,-0.54463 0.37348,-1.12314 0.49666,-1.69919 0.14375,-0.52693 0.28061,-1.05741 0.44748,-1.57783 0.20942,-0.66848 0.43237,-1.33605 0.71262,-1.97836 0.37988,-0.62587 0.69343,-1.28744 1.04227,-1.93047 0.2968,-0.54616 0.51043,-1.13232 0.77037,-1.69678 0.1835,-0.57798 0.5256,-1.07258 0.81813,-1.59534 0.30837,-0.53111 0.56093,-1.09028 0.85614,-1.62837 0.41309,-0.71611 0.75605,-1.47021 1.19226,-2.17242 0.51345,-0.70976 0.98515,-1.44523 1.42822,-2.20035 0.4673,-0.70292 0.79505,-1.4831 1.27463,-2.17722 0.43839,-0.60372 0.74071,-1.28814 1.08703,-1.9452 0.24292,-0.47762 0.45961,-0.96979 0.71486,-1.44085 0.34775,-0.7219 0.77609,-1.40091 1.17609,-2.09438 0.3429,-0.73808 0.62988,-1.50011 0.95796,-2.24489 0.32166,-0.74478 0.5984,-1.50071 0.99148,-2.212566 0.36668,-0.558727 0.63256,-1.169353 0.87022,-1.790894 0.25499,-0.669845 0.50194,-1.340629 0.70293,-2.02882 0.21957,-0.950254 0.41834,-1.903444 0.65272,-2.850505 0.13739,-0.73325 0.44793,-1.416381 0.69397,-2.117581 0.23948,-0.518592 0.34129,-1.079283 0.48778,-1.626875 0.2019,-0.791918 0.38375,-1.58788 0.56761,-2.384144 0.26009,-1.020671 0.4302,-2.058223 0.52313,-3.10648 0.10404,-0.69563 0.23441,-1.383518 0.29382,-2.085254 -0.002,-0.683386 0.29728,-1.305233 0.45915,-1.957459 0.1412,-0.673925 0.16265,-1.364482 0.17829,-2.050513 -0.002,-0.668791 0.0352,-1.339904 -0.0195,-2.007064 -0.10493,-0.635573 -0.15381,-1.277244 -0.29898,-1.905332 -0.11864,-0.551533 -0.3153,-1.081111 -0.50928,-1.60922 -0.16122,-0.61575 -0.41933,-1.188455 -0.70494,-1.75378 -0.30882,-0.675587 -0.66945,-1.327718 -1.02891,-1.977697 -0.3604,-0.69002 -0.6817,-1.394448 -1.09616,-2.054946 -0.37293,-0.679747 -0.86096,-1.290638 -1.34694,-1.892917 -0.34786,-0.444072 -0.6955,-0.899561 -1.1073,-1.287099 -0.31644,-0.352883 -0.66847,-0.656085 -1.01669,-0.977168 -0.28117,-0.199189 -0.14274,-0.09119 -0.41408,-0.32557 0,0 3.71286,-2.31865 3.71286,-2.31865 v 0 c 0.27053,0.222479 0.12902,0.107525 0.42487,0.344425 0.34575,0.325849 0.71315,0.627146 1.02579,0.986436 0.40589,0.417977 0.77642,0.870552 1.12477,1.337179 0.48893,0.621004 0.99635,1.236795 1.37405,1.933514 0.42009,0.666955 0.73803,1.382344 1.10739,2.076848 0.36182,0.654749 0.72564,1.3119 1.03946,1.990598 0.29248,0.580104 0.5733,1.163042 0.73271,1.797066 0.19756,0.544684 0.41002,1.087125 0.53356,1.655093 0.15484,0.645239 0.21293,1.300005 0.32242,1.954078 0.0895,0.680956 0.0335,1.370797 0.0453,2.056395 -0.0116,0.711603 -0.0317,1.425199 -0.13933,2.130003 -0.0679,0.33195 -0.13854,0.662831 -0.25421,0.982352 -0.0307,0.08483 -0.20081,0.460951 -0.21779,0.551142 -0.0227,0.120541 -0.0118,0.245034 -0.0177,0.367551 -0.0469,0.704851 -0.1304,1.402811 -0.2964,2.090803 -0.0854,1.068506 -0.24077,2.127563 -0.50243,3.168546 -0.19299,0.793152 -0.34193,1.597111 -0.54538,2.387041 -0.14904,0.560245 -0.24441,1.135213 -0.46903,1.672421 -0.14245,0.326769 -0.21907,0.666648 -0.35277,0.996602 -0.0343,0.08472 -0.26945,0.567255 -0.29418,0.650237 -0.0408,0.136943 -0.0516,0.281077 -0.0775,0.421616 -0.23368,0.951036 -0.47729,1.895931 -0.64614,2.861617 -0.18705,0.70712 -0.4322,1.389035 -0.67325,2.076932 -0.28661,0.614932 -0.4532,1.28776 -0.84812,1.851911 -0.45297,0.67184 -0.71975,1.415974 -1.01001,2.167013 -0.36219,0.738095 -0.65692,1.509615 -0.94873,2.277435 -0.38126,0.69674 -0.83396,1.36088 -1.1692,2.07697 -0.24264,0.48038 -0.50614,0.94902 -0.7227,1.44308 -0.34444,0.67223 -0.67056,1.3549 -1.06307,2.00129 -0.14656,0.1997 -0.31989,0.38084 -0.44836,0.59264 -0.30426,0.50162 -0.47434,1.089 -0.84591,1.55308 -0.45176,0.75581 -0.88139,1.52412 -1.41608,2.22706 -0.49651,0.6521 -0.78499,1.42267 -1.20484,2.12332 -0.27935,0.54521 -0.55739,1.09075 -0.86097,1.62195 -0.25164,0.54677 -0.65195,0.99116 -0.82521,1.57424 -0.24985,0.5803 -0.52086,1.15067 -0.75378,1.73633 -0.3751,0.62945 -0.66382,1.30035 -1.04418,1.92626 -0.38858,0.54879 -0.4904,1.26992 -0.75421,1.88493 -0.12605,0.52135 -0.29701,1.03435 -0.46371,1.54666 -0.10718,0.60675 -0.27437,1.20031 -0.44961,1.78885 -0.23219,0.51123 -0.43014,1.03085 -0.63461,1.55578 -0.0378,0.67831 -0.10963,1.35243 -0.29295,2.00942 -0.19859,0.84424 -0.28944,1.72194 -0.38263,2.58237 -0.15587,1.77388 -0.37507,3.54421 -0.44027,5.32447 0,0 -3.88714,1.95492 -3.88714,1.95492 z"
       id="path45" />
  </g>
</svg>
